<svg preserveAspectRatio="xMidYMid meet" data-bbox="27.106 33.275 145.789 133.451" viewBox="27.106 33.275 145.789 133.451" height="200" width="200" xmlns="http://www.w3.org/2000/svg" data-type="color" role="presentation" aria-hidden="true">
    <g>
        <path d="M99.895 48.218c-.073.075-.147.146-.22.221-6.42-7.038-14.022-11.641-23.006-13.91-27.797-7.022-53.473 16.469-49.068 44.788 2.08 13.376 8.856 24.353 17.397 34.354 12.683 14.85 27.358 27.687 41.905 40.645 4.176 3.72 8.123 7.717 12.991 12.41V48.218h.001z" fill="#F9EA30" data-color="1"></path>
        <path d="M100.105 48.218c.073.075.147.146.22.221 6.42-7.038 14.022-11.641 23.006-13.91 27.797-7.022 53.473 16.469 49.068 44.788-2.08 13.376-8.856 24.353-17.397 34.354-12.683 14.85-27.358 27.687-41.905 40.645-4.176 3.72-8.123 7.717-12.991 12.41V48.218h-.001z" fill="#385CF9" data-color="2"></path>
    </g>
</svg>